<svg xmlns="http://www.w3.org/2000/svg" viewBox="0 0 387.34 71.97"><defs><style>.cls-1{font-size:50px;font-family:Lato-Regular, Lato;}.cls-2,.cls-3{fill:#999;}.cls-2{letter-spacing:-0.01em;}.cls-4,.cls-5,.cls-6{font-size:60px;font-family:Lato-Black, Lato;}.cls-4{letter-spacing:-0.02em;}.cls-5{letter-spacing:-0.02em;}.cls-6{letter-spacing:0em;}</style></defs><title>Fichier 1</title><g id="Calque_2" data-name="Calque 2"><g id="Calque_1-2" data-name="Calque 1"><text class="cls-1" transform="translate(0 54)"><tspan class="cls-2">S</tspan><tspan class="cls-3" x="26.63" y="0">ued</tspan><tspan class="cls-4" x="108.9" y="0">M</tspan><tspan class="cls-5" x="165.57" y="0">o</tspan><tspan class="cls-6" x="199.38" y="0">vies</tspan></text><path id="_01-Film_roll" data-name="01-Film roll" d="M367.73,55.19A32,32,0,1,0,345.68,64h1.12a51.23,51.23,0,0,0,17.07-2.55c12.72-4.23,20.72-.13,21.06,0l1.2-2.24L387.34,57C387,56.83,379.54,52.9,367.73,55.19Zm-6.91-41.5a1.89,1.89,0,0,1,2.58.69l6.4,11.08a1.89,1.89,0,0,1-.69,2.58,8.29,8.29,0,0,1-8.29-14.35ZM330.53,50.31a1.89,1.89,0,0,1-2.58-.69l-6.4-11.08a1.9,1.9,0,0,1,.69-2.58,8.29,8.29,0,0,1,8.29,14.35Zm3-25.31a8.3,8.3,0,0,1-11.32,3,1.9,1.9,0,0,1-.69-2.58L328,14.38a1.89,1.89,0,0,1,2.58-.69A8.29,8.29,0,0,1,333.56,25Zm18.52,31.2h-12.8a1.88,1.88,0,0,1-1.89-1.87,8.29,8.29,0,1,1,16.57,0A1.88,1.88,0,0,1,352.08,56.2ZM339.64,32a6,6,0,1,1,6,6A6,6,0,0,1,339.64,32Zm6-14a8.29,8.29,0,0,1-8.29-8.29,1.88,1.88,0,0,1,1.89-1.87h12.8A1.88,1.88,0,0,1,354,9.67,8.29,8.29,0,0,1,345.68,18ZM363.4,49.62a1.89,1.89,0,0,1-2.58.69A8.29,8.29,0,0,1,369.11,36a1.89,1.89,0,0,1,.69,2.58Z"/></g></g></svg>